<svg xmlns="http://www.w3.org/2000/svg" version="1.1" width="512" height="157" >
            <path d="M0 0 C1.23687309 -0.02409439 1.23687309 -0.02409439 2.49873352 -0.04867554 C6.27160816 -0.09315418 10.04430726 -0.13419153 13.81738281 -0.15722656 C15.80675964 -0.17378441 17.79607702 -0.20107219 19.78515625 -0.23925781 C22.65420372 -0.29405154 25.52185704 -0.31590407 28.39135742 -0.33056641 C29.27797562 -0.35323578 30.16459381 -0.37590515 31.07807922 -0.39926147 C35.27426177 -0.38492248 37.44690785 -0.16062895 41.04467773 2.15209961 C43.70059373 6.28909732 43.80488122 9.53576292 43.83666992 14.36865234 C43.85331192 15.25264206 43.86995392 16.13663177 43.88710022 17.04740906 C43.91235739 18.91404261 43.92414457 20.78090083 43.92333984 22.64770508 C43.93426269 25.48885859 44.02498715 28.32023817 44.11987305 31.15966797 C44.32356934 44.4127498 44.32356934 44.4127498 40.81420898 49.12133789 C38.13354492 51.22412109 38.13354492 51.22412109 35.45654297 52.76123047 C27.47032898 57.40948445 24.89732635 69.30065849 22.06274414 77.52954102 C18.54450368 87.4005151 12.26573813 96.66222396 2.57785034 101.36781311 C-4.30810741 103.98414717 -10.28559186 104.7714166 -17.62036133 104.68896484 C-18.68054474 104.69042007 -19.74072815 104.69187531 -20.83303833 104.69337463 C-23.05318985 104.69172723 -25.2733542 104.68029751 -27.4934082 104.65942383 C-30.89038296 104.6302663 -34.28581299 104.63888029 -37.68286133 104.65185547 C-39.84953556 104.6456229 -42.0162049 104.63723574 -44.18286133 104.62646484 C-45.19436249 104.62940048 -46.20586365 104.63233612 -47.24801636 104.63536072 C-56.07941898 104.51683893 -56.07941898 104.51683893 -60.00317383 101.19287109 C-61.12975662 98.93970551 -61.14643136 97.67485042 -61.18017578 95.17382812 C-61.19301102 94.34601837 -61.20584625 93.51820862 -61.21907043 92.66531372 C-61.22645737 91.76948578 -61.2338443 90.87365784 -61.24145508 89.95068359 C-61.24952682 89.0307663 -61.25759857 88.110849 -61.26591492 87.16305542 C-61.2797574 85.21451708 -61.29047882 83.26595447 -61.29833984 81.31738281 C-61.31556553 78.33661048 -61.3594512 75.35694354 -61.40356445 72.37646484 C-61.41369018 70.48454593 -61.42220666 68.59261757 -61.42895508 66.70068359 C-61.44646317 65.80890411 -61.46397125 64.91712463 -61.48200989 63.99832153 C-61.46027497 57.80143944 -61.46027497 57.80143944 -59.1015625 54.66113281 C-55.99026381 52.48412871 -54.30696895 52.06909023 -50.5534668 52.0793457 C-49.17226151 52.079459 -49.17226151 52.079459 -47.76315308 52.07957458 C-46.26934616 52.08731651 -46.26934616 52.08731651 -44.74536133 52.09521484 C-43.21807907 52.09733727 -43.21807907 52.09733727 -41.65994263 52.09950256 C-38.39932347 52.10511209 -35.13877232 52.11766622 -31.87817383 52.13037109 C-29.67114357 52.13538487 -27.46411223 52.13994799 -25.25708008 52.14404297 C-19.83908802 52.15508461 -14.42113578 52.17183204 -9.00317383 52.19287109 C-9.00983566 51.62768265 -9.0164975 51.0624942 -9.02336121 50.48017883 C-9.08979107 44.59158015 -9.13500615 38.70308813 -9.16796875 32.81420898 C-9.18304434 30.61722489 -9.20350809 28.42027083 -9.22949219 26.22338867 C-9.26592885 23.06340109 -9.28291267 19.90381185 -9.29614258 16.74365234 C-9.31936836 15.27307121 -9.31936836 15.27307121 -9.34306335 13.77278137 C-9.34518545 5.15138508 -9.34518545 5.15138508 -6.00317383 1.19287109 C-3.7584282 0.07049828 -2.49126984 0.04409388 0 0 Z " fill="#004d8b" transform="translate(61.003173828125,-0.19287109375)"/>
            <path d="M0 0 C1.38691544 -0.01429802 1.38691544 -0.01429802 2.80184937 -0.02888489 C3.79874786 -0.02797348 4.79564636 -0.02706207 5.82275391 -0.02612305 C6.84986481 -0.03040817 7.87697571 -0.0346933 8.93521118 -0.03910828 C11.10898094 -0.04485364 13.28276994 -0.04535033 15.45654297 -0.04101562 C18.77946906 -0.03786064 22.10150075 -0.06129551 25.42431641 -0.08666992 C27.53629445 -0.08894341 29.64827489 -0.08964618 31.76025391 -0.08862305 C32.75310394 -0.09783279 33.74595398 -0.10704254 34.76889038 -0.11653137 C43.77945544 -0.05624129 43.77945544 -0.05624129 47.42431641 3.2746582 C49.87667422 7.40326437 49.73083549 11.75048109 49.72509766 16.42700195 C49.72938278 17.20475479 49.73366791 17.98250763 49.73808289 18.78382874 C49.74380821 20.42358428 49.74433973 22.06336522 49.73999023 23.703125 C49.73683087 26.20072089 49.76030844 28.69713046 49.78564453 31.19458008 C49.78791791 32.79288589 49.78862084 34.39119486 49.78759766 35.98950195 C49.7968074 36.73030502 49.80601715 37.47110809 49.81550598 38.23435974 C49.77347117 42.98633243 48.98621039 46.26256466 46.42431641 50.2746582 C43.22386165 52.40829471 42.43802204 52.52138049 38.76928711 52.50170898 C37.35816399 52.50148239 37.35816399 52.50148239 35.91853333 52.50125122 C34.90594955 52.49092865 33.89336578 52.48060608 32.85009766 52.4699707 C31.29164375 52.46572586 31.29164375 52.46572586 29.70170593 52.46139526 C26.37995944 52.45019102 23.05848155 52.42508584 19.73681641 52.3996582 C17.48616926 52.38962873 15.23551788 52.38050282 12.98486328 52.37231445 C7.46458918 52.3502509 1.94447198 52.31677092 -3.57568359 52.2746582 C-3.55902901 53.14123299 -3.55902901 53.14123299 -3.54203796 54.02531433 C-3.43133548 60.04357426 -3.35597155 66.06154456 -3.30102539 72.08056641 C-3.27589636 74.32612864 -3.24178744 76.5716092 -3.19848633 78.81689453 C-3.13776584 82.04651038 -3.10945728 85.27504404 -3.08740234 88.50512695 C-3.0486927 90.00851875 -3.0486927 90.00851875 -3.00920105 91.5422821 C-3.00639991 98.51887583 -3.00639991 98.51887583 -5.91870117 102.38525391 C-10.35100626 105.53710625 -14.29156178 105.4482084 -19.53271484 105.4777832 C-20.31329758 105.48348328 -21.09388031 105.48918335 -21.89811707 105.49505615 C-23.54982145 105.5044977 -25.20154461 105.51103678 -26.85327148 105.51489258 C-29.36850246 105.52458238 -31.88291051 105.55560621 -34.39794922 105.5871582 C-36.00536626 105.59369034 -37.61278913 105.59893999 -39.22021484 105.6027832 C-39.96729202 105.61513 -40.7143692 105.62747681 -41.48408508 105.64019775 C-46.25583036 105.6200454 -49.5842603 104.92687119 -53.57568359 102.2746582 C-55.3269753 99.46205584 -55.82303423 97.34546157 -55.80273438 94.05688477 C-55.80258331 93.23633606 -55.80243225 92.41578735 -55.80227661 91.57037354 C-55.79195404 90.69419373 -55.78163147 89.81801392 -55.77099609 88.9152832 C-55.7681662 88.01090515 -55.7653363 87.1065271 -55.76242065 86.17474365 C-55.75124141 83.29124625 -55.72614093 80.40806145 -55.70068359 77.5246582 C-55.69065088 75.56763144 -55.68152554 73.61059981 -55.67333984 71.65356445 C-55.65130945 66.86047558 -55.61679504 62.06761986 -55.57568359 57.2746582 C-54.69307861 57.0170874 -53.81047363 56.7595166 -52.90112305 56.49414062 C-51.73798584 56.14714111 -50.57484863 55.8001416 -49.37646484 55.44262695 C-47.65036987 54.93252075 -47.65036987 54.93252075 -45.8894043 54.41210938 C-36.27480784 51.11185115 -28.53774819 44.05906737 -23.91943359 35.0402832 C-21.87814889 30.35366015 -20.05321682 25.61809819 -18.34130859 20.80200195 C-15.22477529 12.15058646 -10.73208314 0.06080482 0 0 Z " fill="#46bb3a" transform="translate(107.57568359375,51.725341796875)"/>
            </svg>