<svg xmlns="http://www.w3.org/2000/svg" width="749.376" height="176.377" viewBox="0 0 198.272 46.667"><text xml:space="preserve" style="font-size:11.553px;line-height:1.25;font-family:Arial;-inkscape-font-specification:Arial;stroke-width:.666526" x="56.548" y="96.356" transform="matrix(.98443 0 0 1.01582 -32.358 -19.01)"/><path style="fill:none;fill-rule:evenodd;stroke:#000;stroke-width:1.23555;stroke-miterlimit:4;stroke-dasharray:none;stroke-opacity:1;paint-order:markers fill stroke" d="M111.37 55.131v9.928H32.975V19.63h78.395v10.17" transform="translate(-32.358 -19.01)"/><path style="fill:#000;fill-opacity:1;stroke:none;stroke-width:.347064;stroke-linecap:butt;stroke-linejoin:miter;stroke-miterlimit:4;stroke-dasharray:none;stroke-opacity:1" d="m52.83 29.321-6.362 11.4H59.32ZM35.964 54.983l17.848-30.914 17.293 30.914h-4.227l-6.661-12.297H45.273l-6.918 12.297zM73.155 24.838h4.44l.854.94-.811 1.878-.043 25.021 1.025 1.196-1.025 1.11h-4.312l-1.11-1.068 1.11-1.238.042-25.021-.982-1.794zM81.4 24.539h4.045l1.027 1.204-1.027 1.57-.12 13.526h12.197l-.007-13.183-.848-1.913.848-1.208h3.737l.699 1.208-.7 1.87v25.064l1.034 1.196-1.033 1.11h-3.737l-1.086-1.11 1.086-1.196v-9.611h-12.07v9.611l.924 1.196-.924 1.11H81.4l-.994-1.11.994-1.196V27.373l-1.01-1.63z" transform="translate(-32.358 -17.436)"/><g style="font-size:36.1935px;line-height:1.25;font-family:Arial;-inkscape-font-specification:Arial;stroke-width:2.08811"><path style="font-style:normal;font-variant:normal;font-weight:400;font-stretch:normal;font-family:'Tw Cen MT';-inkscape-font-specification:'Tw Cen MT';stroke-width:2.08811" d="M210.86 32.904h3.04v19.475h7.333v3.04H210.86zm-13.909-.866 10.64 23.38h-3.217l-2.633-5.76h-9.561l-2.563 5.76h-3.199zm0 7.05-3.623 8.007h7.246zm-24.9-6.184h13.766v3.075h-5.372v19.44h-3.04v-19.44h-5.354zm-6.592 0h3.04v22.514h-3.04zm-17.337 0h4.524q3.835 0 6.185 1.802 2.35 1.803 2.35 4.683 0 2.899-2.491 4.86-2.474 1.962-7.528 1.909v9.26h-3.04zm3.04 2.686v7.882q3.463-.036 5.125-.972 1.678-.955 1.678-3.04 0-1.573-1.272-2.722-1.255-1.148-5.531-1.148zm-8.112-.195-2.492 1.997q-.99-1.025-1.803-1.52-.795-.512-2.315-.512-1.661 0-2.704.76-1.025.742-1.025 1.926 0 1.025.902 1.82.9.778 3.075 1.715 2.173.919 3.375 1.732 1.22.795 1.997 1.767.778.972 1.149 2.05.389 1.078.389 2.28 0 2.81-2.05 4.789-2.033 1.98-4.931 1.98-2.828 0-5.001-1.538-2.156-1.555-3.323-4.648l3.075-.866q1.68 3.8 5.143 3.8 1.679 0 2.792-1.008 1.114-1.007 1.114-2.545 0-.919-.584-1.838-.583-.936-1.449-1.537-.866-.6-2.774-1.36-1.891-.778-2.916-1.415-1.008-.654-1.75-1.537-.742-.901-1.096-1.785-.335-.884-.335-1.891 0-2.421 1.944-4.118 1.944-1.714 4.718-1.714 1.838 0 3.73.795 1.89.795 3.145 2.421zm-42.591 8.625q0-4.878 3.676-8.36 3.676-3.481 8.836-3.481 5.037 0 8.677 3.517 3.64 3.499 3.64 8.324 0 5.107-3.604 8.642-3.588 3.516-8.819 3.516-5.16 0-8.783-3.552-3.623-3.552-3.623-8.606zm21.56.141q0-3.729-2.686-6.274-2.686-2.562-6.61-2.562-3.728 0-6.397 2.598-2.65 2.597-2.65 6.238 0 3.694 2.72 6.256 2.74 2.545 6.699 2.545 3.64 0 6.273-2.598 2.651-2.615 2.651-6.203z" transform="matrix(1.04247 0 0 .95926 -32.358 -19.01)" aria-label="OSPITAL"/></g></svg>