<svg xmlns="http://www.w3.org/2000/svg" width="839.459" height="117.875" viewBox="0 0 222.107 31.188"><path style="fill:#000;stroke:#000;stroke-width:.450162px;stroke-linecap:butt;stroke-linejoin:miter;stroke-opacity:1" d="M92.448 138.862c.021-2.367.675-4.627 2.424-6.382-5.242-7.127-1.202-11.723 1.208-13.063 2.576-1.234 3.767-1.06 6.443-.456-.398-2.078-2.842-4.006-5.514-3.889-12.165-.345-12.905 17.824-4.561 23.79z" transform="translate(-86.683 -114.842)"/><path style="fill:none;stroke:#000;stroke-width:.450162px;stroke-linecap:butt;stroke-linejoin:miter;stroke-opacity:1" d="M99.36 126.703c2.103-1.843 2.944-3.544 3.25-6.376-5.444-2.47-9.51 2.592-8.944 6.254.098 1.065.597 3.14 3.176 5.712-2.036 1.825-3.003 4.098-3.107 6.703 4.442.595 7.176-1.262 8.331-3.75 1.281-4.032-.913-5.599-2.707-8.543z" transform="translate(-86.683 -114.842)"/><path style="fill:#000;stroke:#000;stroke-width:.450162px;stroke-linecap:butt;stroke-linejoin:miter;stroke-opacity:1" d="M103.975 120.466c-.31 3.458-1.228 4.994-2.868 6.366 1.514 2.16 2.43 2.63 2.909 5.573.137 5.714-4.202 8.659-10.496 7.852 1.283 3.89 6.765 5.394 10.272 3.62 8.51-4.474 7.813-18.81.183-23.411z" transform="translate(-86.683 -114.842)"/><text xml:space="preserve" style="font-size:24.0351px;line-height:1.25;font-family:'Microsoft YaHei';-inkscape-font-specification:'Microsoft YaHei';stroke-width:.600878" x="113.117" y="139.939" transform="translate(-86.683 -114.842)"><tspan x="113.117" y="139.939" style="font-style:normal;font-variant:normal;font-weight:700;font-stretch:normal;font-family:'Microsoft YaHei';-inkscape-font-specification:'Microsoft YaHei Bold';stroke-width:.600878">iCareSolutions</tspan></text></svg>