<svg xmlns="http://www.w3.org/2000/svg" width="132.073" height="41.898" viewBox="0 0 34.944 11.085"><path style="fill:none;fill-rule:evenodd;stroke:#000;stroke-width:.264295;stroke-linecap:butt;stroke-linejoin:miter;stroke-miterlimit:4;stroke-dasharray:none;paint-order:markers fill stroke" d="M71.413 72.004h34.68v10.821h-34.68z" transform="translate(-71.28 -71.872)"/><text xml:space="preserve" style="font-size:7.43924px;line-height:1.25;font-family:Arial;-inkscape-font-specification:Arial;stroke-width:.429187" x="73.491" y="80.034" transform="translate(-71.28 -71.872)"><tspan x="73.491" y="80.034" style="stroke-width:.429187">We</tspan></text><path style="fill:#000;fill-opacity:1;fill-rule:evenodd;stroke-width:.1;paint-order:markers fill stroke" d="M73.052 73.568h11.72v7.694h-11.72Zm-.75-.655v9.003h32.902v-9.003zm17.482 1.748c.267 0 .512.034.736.102a1.956 1.956 0 0 1 1.07.794c.127.191.226.41.298.655l-.694.164a2.155 2.155 0 0 0-.227-.502 1.29 1.29 0 0 0-.31-.345 1.253 1.253 0 0 0-.399-.199 2.045 2.045 0 0 0-1.053.008 1.512 1.512 0 0 0-.813.566c-.096.132-.172.28-.228.447-.111.329-.167.67-.167 1.02 0 .454.065.85.196 1.188.067.169.152.316.255.442.102.125.224.23.363.314.278.167.58.25.904.25.197 0 .38-.029.547-.085a1.426 1.426 0 0 0 .8-.68 2.18 2.18 0 0 0 .212-.59l.704.178c-.074.29-.177.544-.31.765a2.021 2.021 0 0 1-1.127.9c-.234.077-.49.115-.767.115-.287 0-.548-.029-.782-.087a2.048 2.048 0 0 1-.62-.261 2.053 2.053 0 0 1-.475-.43 2.467 2.467 0 0 1-.347-.587 3.516 3.516 0 0 1-.21-.69 3.828 3.828 0 0 1-.07-.738c0-.277.027-.536.08-.778.053-.242.131-.465.237-.671a2.3 2.3 0 0 1 .386-.546c.15-.157.323-.289.518-.395.196-.108.402-.189.617-.243.216-.054.441-.08.676-.08zm8.533 1.47c.22 0 .444.071.671.212l-.225.606a.936.936 0 0 0-.48-.141.617.617 0 0 0-.384.13.689.689 0 0 0-.244.357 2.546 2.546 0 0 0-.108.762v2.02h-.655v-3.858h.59v.585c.15-.273.287-.454.413-.541a.735.735 0 0 1 .422-.131zm-3.924.001c.33 0 .598.039.803.116.206.078.358.176.455.295.097.116.164.263.203.443.022.111.032.312.032.603v.871c0 .608.014.994.04 1.156.03.16.085.313.168.46h-.683a1.387 1.387 0 0 1-.13-.475 2.427 2.427 0 0 1-.702.436 2.005 2.005 0 0 1-.72.127c-.211 0-.399-.025-.562-.077a1.107 1.107 0 0 1-.415-.232 1.028 1.028 0 0 1-.34-.795c0-.189.042-.36.126-.516.088-.157.2-.283.338-.378.14-.094.298-.166.472-.214.129-.034.322-.067.582-.098.527-.063.916-.138 1.165-.225l.004-.171c0-.266-.062-.454-.185-.563a.813.813 0 0 0-.312-.166 1.524 1.524 0 0 0-.433-.056c-.307 0-.535.055-.683.164-.145.106-.253.297-.323.57l-.64-.087c.059-.274.155-.494.288-.661.133-.17.325-.299.577-.389.252-.092.544-.138.875-.138zm6.568 0c.258 0 .492.044.703.132.21.088.397.22.56.395a1.7 1.7 0 0 1 .369.634c.082.247.122.53.122.848 0 .039 0 .097-.004.174h-2.876c.012.212.048.4.108.561.06.163.143.3.251.413a1.075 1.075 0 0 0 .806.338 1 1 0 0 0 .614-.19c.17-.125.305-.326.404-.602l.675.083a1.86 1.86 0 0 1-.228.526 1.522 1.522 0 0 1-.856.639 2.153 2.153 0 0 1-.612.081c-.282 0-.535-.043-.76-.13a1.6 1.6 0 0 1-.954-1.016 2.613 2.613 0 0 1-.124-.837c0-.325.042-.613.125-.865.084-.252.21-.467.376-.646.167-.18.36-.314.576-.403a1.88 1.88 0 0 1 .725-.135zm.007.538a1.037 1.037 0 0 0-.76.301c-.1.1-.18.218-.236.353-.057.134-.09.286-.101.454h2.154c-.029-.325-.111-.568-.247-.73a1.03 1.03 0 0 0-.359-.284 1.054 1.054 0 0 0-.451-.094zm-5.743 1.471c-.237.097-.593.18-1.068.247-.268.039-.459.082-.57.13a.564.564 0 0 0-.349.524c0 .174.066.32.196.436.134.116.327.174.581.174.252 0 .476-.054.673-.163.196-.111.34-.263.432-.454.07-.148.105-.366.105-.654z" transform="translate(-71.28 -71.872)"/></svg>